<svg width="25" height="25" viewBox="0 0 25 25" fill="none" xmlns="http://www.w3.org/2000/svg">
<mask id="path-1-inside-1_101_197" fill="white">
<path d="M24.8178 17.6657L22.0687 13.1666V8.48214C22.0687 3.80508 17.7763 0 12.5002 0C7.22406 0 2.93161 3.80508 2.93161 8.48214V13.1666L0.18241 17.6656C0.0577366 17.8696 -0.00501213 18.0989 0.000312764 18.3308C0.00563766 18.5628 0.0788534 18.7896 0.212786 18.9889C0.346718 19.1882 0.536773 19.3533 0.764328 19.468C0.991883 19.5826 1.24913 19.6429 1.51087 19.6429H6.98352C6.96825 19.7913 6.96055 19.9402 6.96042 20.0893C6.96042 21.3917 7.54406 22.6407 8.58296 23.5617C9.62185 24.4826 11.0309 25 12.5001 25C13.9693 25 15.3784 24.4826 16.4173 23.5617C17.4562 22.6407 18.0398 21.3917 18.0398 20.0893C18.0398 19.9386 18.0317 19.79 18.0167 19.6429H23.4894C23.7511 19.6428 24.0083 19.5825 24.2358 19.4679C24.4633 19.3532 24.6533 19.1882 24.7873 18.9888C24.9212 18.7895 24.9944 18.5628 24.9997 18.3308C25.005 18.0989 24.9423 17.8697 24.8176 17.6657H24.8178ZM16.0254 20.0893C16.0258 20.5187 15.9264 20.9437 15.7333 21.3375C15.5401 21.7314 15.2575 22.0857 14.903 22.3784C14.5486 22.6712 14.1298 22.896 13.673 23.0388C13.2161 23.1817 12.7309 23.2396 12.2477 23.2088C11.7645 23.1781 11.2936 23.0593 10.8645 22.8601C10.4353 22.6608 10.0571 22.3853 9.75344 22.0507C9.44977 21.7161 9.22716 21.3296 9.0995 20.9153C8.97185 20.501 8.94189 20.0679 9.01149 19.6429H15.9888C16.013 19.7907 16.0252 19.9399 16.0254 20.0893ZM2.35636 17.8571L4.94604 13.6191V8.48214C4.94604 6.70614 5.74192 5.00288 7.1586 3.74705C8.57527 2.49123 10.4967 1.78571 12.5002 1.78571C14.5037 1.78571 16.4251 2.49123 17.8418 3.74705C19.2584 5.00288 20.0543 6.70614 20.0543 8.48214V13.6191L22.6439 17.8571H2.35636Z"/>
</mask>
<path d="M24.8178 17.6657L22.0687 13.1666V8.48214C22.0687 3.80508 17.7763 0 12.5002 0C7.22406 0 2.93161 3.80508 2.93161 8.48214V13.1666L0.18241 17.6656C0.0577366 17.8696 -0.00501213 18.0989 0.000312764 18.3308C0.00563766 18.5628 0.0788534 18.7896 0.212786 18.9889C0.346718 19.1882 0.536773 19.3533 0.764328 19.468C0.991883 19.5826 1.24913 19.6429 1.51087 19.6429H6.98352C6.96825 19.7913 6.96055 19.9402 6.96042 20.0893C6.96042 21.3917 7.54406 22.6407 8.58296 23.5617C9.62185 24.4826 11.0309 25 12.5001 25C13.9693 25 15.3784 24.4826 16.4173 23.5617C17.4562 22.6407 18.0398 21.3917 18.0398 20.0893C18.0398 19.9386 18.0317 19.79 18.0167 19.6429H23.4894C23.7511 19.6428 24.0083 19.5825 24.2358 19.4679C24.4633 19.3532 24.6533 19.1882 24.7873 18.9888C24.9212 18.7895 24.9944 18.5628 24.9997 18.3308C25.005 18.0989 24.9423 17.8697 24.8176 17.6657H24.8178ZM16.0254 20.0893C16.0258 20.5187 15.9264 20.9437 15.7333 21.3375C15.5401 21.7314 15.2575 22.0857 14.903 22.3784C14.5486 22.6712 14.1298 22.896 13.673 23.0388C13.2161 23.1817 12.7309 23.2396 12.2477 23.2088C11.7645 23.1781 11.2936 23.0593 10.8645 22.8601C10.4353 22.6608 10.0571 22.3853 9.75344 22.0507C9.44977 21.7161 9.22716 21.3296 9.0995 20.9153C8.97185 20.501 8.94189 20.0679 9.01149 19.6429H15.9888C16.013 19.7907 16.0252 19.9399 16.0254 20.0893ZM2.35636 17.8571L4.94604 13.6191V8.48214C4.94604 6.70614 5.74192 5.00288 7.1586 3.74705C8.57527 2.49123 10.4967 1.78571 12.5002 1.78571C14.5037 1.78571 16.4251 2.49123 17.8418 3.74705C19.2584 5.00288 20.0543 6.70614 20.0543 8.48214V13.6191L22.6439 17.8571H2.35636Z" fill="black"/>
<path d="M24.8178 17.6657V19.6657H28.3837L26.5244 16.6229L24.8178 17.6657ZM22.0687 13.1666H20.0687V13.7292L20.3621 14.2094L22.0687 13.1666ZM2.93161 13.1666L4.63821 14.2094L4.93161 13.7293V13.1666H2.93161ZM0.18241 17.6656L1.88896 18.7085L1.88901 18.7085L0.18241 17.6656ZM1.51087 19.6429V17.6429H1.51082L1.51087 19.6429ZM6.98352 19.6429L8.97303 19.8475L9.19976 17.6429H6.98352V19.6429ZM6.96042 20.0893L4.96042 20.0876V20.0893H6.96042ZM18.0398 20.0893H20.0398H18.0398ZM18.0167 19.6429V17.6429H15.8027L16.027 19.8455L18.0167 19.6429ZM23.4894 19.6429V21.6429H23.4896L23.4894 19.6429ZM24.8176 17.6657V15.6657H21.2517L23.111 18.7085L24.8176 17.6657ZM9.01149 19.6429V17.6429H7.31239L7.03778 19.3196L9.01149 19.6429ZM15.9888 19.6429L17.9625 19.3197L17.688 17.6429H15.9888V19.6429ZM2.35636 17.8571L0.649762 16.8143L-1.2096 19.8571H2.35636V17.8571ZM4.94604 13.6191L6.65265 14.662L6.94604 14.1818V13.6191H4.94604ZM4.94604 8.48214H2.94605H4.94604ZM12.5002 1.78571V3.78571V1.78571ZM20.0543 8.48214H22.0543H20.0543ZM20.0543 13.6191H18.0543V14.1818L18.3477 14.6619L20.0543 13.6191ZM22.6439 17.8571V19.8571H26.2097L24.3505 16.8143L22.6439 17.8571ZM26.5244 16.6229L23.7754 12.1238L20.3621 14.2094L23.1112 18.7085L26.5244 16.6229ZM24.0687 13.1666V8.48214H20.0687V13.1666H24.0687ZM24.0687 8.48214C24.0687 2.48075 18.6475 -2 12.5002 -2V2C16.9051 2 20.0687 5.12941 20.0687 8.48214H24.0687ZM12.5002 -2C6.35287 -2 0.93161 2.48075 0.93161 8.48214H4.93161C4.93161 5.12941 8.09524 2 12.5002 2V-2ZM0.93161 8.48214V13.1666H4.93161V8.48214H0.93161ZM1.22501 12.1237L-1.52419 16.6228L1.88901 18.7085L4.63821 14.2094L1.22501 12.1237ZM-1.52414 16.6227C-1.84244 17.1435 -2.01357 17.7491 -1.99916 18.3767L1.99979 18.2849C2.00354 18.4486 1.95791 18.5957 1.88896 18.7085L-1.52414 16.6227ZM-1.99916 18.3767C-1.98476 19.0041 -1.78624 19.5998 -1.44731 20.1043L1.87288 17.8735C1.94395 17.9793 1.99603 18.1215 1.99979 18.2849L-1.99916 18.3767ZM-1.44731 20.1043C-1.11003 20.6063 -0.650515 20.9946 -0.135513 21.2541L1.66417 17.6818C1.72406 17.712 1.80347 17.7702 1.87288 17.8735L-1.44731 20.1043ZM-0.135513 21.2541C0.37893 21.5133 0.945429 21.6429 1.51091 21.6429L1.51082 17.6429C1.55283 17.6429 1.60483 17.6519 1.66417 17.6818L-0.135513 21.2541ZM1.51087 21.6429H6.98352V17.6429H1.51087V21.6429ZM4.99401 19.4382C4.97182 19.654 4.96061 19.8707 4.96042 20.0876L8.96042 20.091C8.96049 20.0098 8.96469 19.9286 8.97303 19.8475L4.99401 19.4382ZM4.96042 20.0893C4.96042 22.0052 5.82109 23.7861 7.25626 25.0583L9.90965 22.0651C9.26703 21.4954 8.96042 20.7781 8.96042 20.0893H4.96042ZM7.25626 25.0583C8.6836 26.3236 10.5731 27 12.5001 27V23C11.4887 23 10.5601 22.6417 9.90965 22.0651L7.25626 25.0583ZM12.5001 27C14.4272 27 16.3166 26.3236 17.744 25.0583L15.0906 22.0651C14.4401 22.6417 13.5115 23 12.5001 23V27ZM17.744 25.0583C19.1791 23.7861 20.0398 22.0052 20.0398 20.0893H16.0398C16.0398 20.7781 15.7332 21.4954 15.0906 22.0651L17.744 25.0583ZM20.0398 20.0893C20.0398 19.8665 20.0278 19.6501 20.0064 19.4402L16.027 19.8455C16.0356 19.9298 16.0398 20.0107 16.0398 20.0893H20.0398ZM18.0167 21.6429H23.4894V17.6429H18.0167V21.6429ZM23.4896 21.6429C24.055 21.6428 24.6214 21.5131 25.1358 21.2539L23.3358 17.6818C23.3951 17.6519 23.4471 17.6429 23.4891 17.6429L23.4896 21.6429ZM25.1358 21.2539C25.6508 20.9945 26.1102 20.6061 26.4474 20.1041L23.1271 17.8735C23.1965 17.7702 23.2759 17.712 23.3358 17.6818L25.1358 21.2539ZM26.4474 20.1041C26.7863 19.5997 26.9848 19.0041 26.9992 18.3767L23.0002 18.2849C23.004 18.1215 23.056 17.9793 23.1271 17.8735L26.4474 20.1041ZM26.9992 18.3767C27.0136 17.7491 26.8425 17.1436 26.5242 16.6228L23.111 18.7085C23.0421 18.5957 22.9965 18.4486 23.0002 18.2849L26.9992 18.3767ZM24.8176 19.6657H24.8178V15.6657H24.8176V19.6657ZM14.0254 20.0911C14.0255 20.208 13.9989 20.3317 13.9375 20.457L17.529 22.218C17.8538 21.5556 18.0261 20.8295 18.0254 20.0874L14.0254 20.0911ZM13.9375 20.457C13.8755 20.5835 13.7757 20.7156 13.6296 20.8363L16.1765 23.9206C16.7394 23.4558 17.2048 22.8792 17.529 22.218L13.9375 20.457ZM13.6296 20.8363C13.483 20.9573 13.2961 21.0612 13.076 21.13L14.2699 24.9477C14.9635 24.7308 15.6142 24.385 16.1765 23.9206L13.6296 20.8363ZM13.076 21.13C12.8559 21.1988 12.6162 21.2282 12.3747 21.2128L12.1207 25.2048C12.8456 25.2509 13.5763 25.1646 14.2699 24.9477L13.076 21.13ZM12.3747 21.2128C12.1333 21.1975 11.9055 21.1384 11.7067 21.0461L10.0222 24.6741C10.6817 24.9803 11.3957 25.1586 12.1207 25.2048L12.3747 21.2128ZM11.7067 21.0461C11.5081 20.9539 11.3503 20.8342 11.2345 20.7066L8.27241 23.3947C8.76391 23.9363 9.36251 24.3678 10.0222 24.6741L11.7067 21.0461ZM11.2345 20.7066C11.1193 20.5797 11.0485 20.4485 11.0108 20.3263L7.18819 21.5042C7.40586 22.2106 7.78026 22.8525 8.27241 23.3947L11.2345 20.7066ZM11.0108 20.3263C10.9735 20.2052 10.9659 20.0842 10.9852 19.9661L7.03778 19.3196C6.91792 20.0515 6.9702 20.7968 7.18819 21.5042L11.0108 20.3263ZM9.01149 21.6429H15.9888V17.6429H9.01149V21.6429ZM14.0151 19.966C14.022 20.0081 14.0254 20.0501 14.0254 20.0918L18.0254 20.0868C18.0251 19.8297 18.004 19.5733 17.9625 19.3197L14.0151 19.966ZM4.06296 18.9L6.65265 14.662L3.23944 12.5763L0.649762 16.8143L4.06296 18.9ZM6.94604 13.6191V8.48214H2.94605V13.6191H6.94604ZM6.94604 8.48214C6.94604 7.31969 7.46489 6.14822 8.48529 5.24368L5.8319 2.25043C4.01896 3.85753 2.94605 6.09259 2.94605 8.48214H6.94604ZM8.48529 5.24368C9.51352 4.33219 10.9545 3.78571 12.5002 3.78571V-0.214286C10.0389 -0.214286 7.63702 0.650266 5.8319 2.25043L8.48529 5.24368ZM12.5002 3.78571C14.0458 3.78571 15.4868 4.33219 16.5151 5.24368L19.1684 2.25043C17.3633 0.650267 14.9615 -0.214286 12.5002 -0.214286V3.78571ZM16.5151 5.24368C17.5355 6.14822 18.0543 7.31969 18.0543 8.48214H22.0543C22.0543 6.09259 20.9814 3.85753 19.1684 2.25043L16.5151 5.24368ZM18.0543 8.48214V13.6191H22.0543V8.48214H18.0543ZM18.3477 14.6619L20.9372 18.8999L24.3505 16.8143L21.7609 12.5763L18.3477 14.6619ZM22.6439 15.8571H2.35636V19.8571H22.6439V15.8571Z" fill="black" mask="url(#path-1-inside-1_101_197)"/>
</svg>
