<svg width="21" height="24" viewBox="0 0 21 24" fill="none" xmlns="http://www.w3.org/2000/svg">
<path d="M10.5 24C11.2956 24 12.0587 23.6839 12.6213 23.1214C13.1839 22.5588 13.5 21.7958 13.5 21.0002H7.5C7.5 21.7958 7.81607 22.5588 8.37868 23.1214C8.94129 23.6839 9.70435 24 10.5 24ZM11.9925 1.64972C12.0134 1.44116 11.9904 1.23053 11.9249 1.03142C11.8595 0.832297 11.753 0.649112 11.6124 0.493673C11.4717 0.338234 11.3001 0.213993 11.1085 0.128962C10.9169 0.0439318 10.7096 0 10.5 0C10.2904 0 10.0831 0.0439318 9.8915 0.128962C9.6999 0.213993 9.52826 0.338234 9.38763 0.493673C9.24701 0.649112 9.14052 0.832297 9.07505 1.03142C9.00958 1.23053 8.98656 1.44116 9.0075 1.64972C7.31208 1.99455 5.78793 2.91469 4.69315 4.25433C3.59836 5.59397 3.00022 7.27078 3 9.00082C3 10.6477 2.25 18.0003 0 19.5002H21C18.75 18.0003 18 10.6477 18 9.00082C18 5.37102 15.42 2.34118 11.9925 1.64972Z" fill="white"/>
</svg>
