<svg width="20" height="20" viewBox="0 0 20 20" fill="none" xmlns="http://www.w3.org/2000/svg">
<path d="M20 6.94531L19.999 4.00047L18.6658 4.00097L18.6665 6.00746L15.9048 6.99791L13.9997 6.99821V5.70848C14.0006 4.77224 13.6748 3.86503 13.0784 3.14322L14.8752 1.33496H16.66V0.00208263H14.3204L12.0712 2.26565C11.4422 1.87896 10.7191 1.67232 9.98073 1.66825C9.24234 1.66418 8.51701 1.86284 7.88378 2.24257L5.67339 0L3.33376 0.00208263L3.33497 1.33496L5.11591 1.33338L6.86682 3.1099C6.25293 3.83663 5.91653 4.75737 5.91736 5.7086V6.99941L4.11612 6.9997L1.33317 6.00863V4.00214H0V6.94872L3.33438 8.13619L3.33467 11.6648H0.00141651V12.9977H3.33476V13.3313C3.33396 14.1124 3.47076 14.8876 3.73887 15.6213L0.00141651 17.0613V19.9953H1.33459V17.9761L4.32297 16.8248C4.85012 17.6838 5.56551 18.412 6.41517 18.9543C7.26484 19.4966 8.22659 19.8389 9.22788 19.9554C10.2292 20.0719 11.2438 19.9595 12.1954 19.6268C13.1469 19.294 14.0104 18.7496 14.7208 18.0345C15.0866 17.6682 15.409 17.2608 15.6814 16.8205L18.666 17.9754V19.9953H19.9991V17.0621L16.2655 15.6174C16.5335 14.882 16.6691 14.105 16.666 13.3223V12.9977H19.999V11.6648H16.666V8.14098L20 6.94531ZM9.33219 18.6267C6.70713 18.302 4.66797 16.0513 4.66797 13.3314L4.66755 8.33267H5.9174V8.33296H9.33219V18.6267ZM7.25053 6.99921V5.70848C7.25053 4.99043 7.53583 4.30179 8.04368 3.79405C8.55153 3.28631 9.24032 3.00106 9.95853 3.00106C10.6767 3.00106 11.3655 3.28631 11.8734 3.79405C12.3812 4.30179 12.6665 4.99043 12.6665 5.70848V6.99837L7.25053 6.99921ZM15.3329 13.3241C15.3329 14.6241 14.859 15.8794 13.9998 16.8551C13.1406 17.8309 11.9551 18.4599 10.6654 18.6246V8.33259H13.9996V8.33109H15.3328L15.3329 13.3241Z" fill="white"/>
</svg>
