<svg width="25" height="25" viewBox="0 0 25 25" fill="none" xmlns="http://www.w3.org/2000/svg">
<path d="M25 8.68163L24.9987 5.00059L23.3322 5.00122L23.3331 7.50932L19.881 8.74739L17.4996 8.74776V7.1356C17.5008 5.96531 17.0935 4.83129 16.348 3.92903L18.594 1.6687H20.825V0.00260329H17.9005L15.089 2.83206C14.3028 2.3487 13.3989 2.0904 12.4759 2.08531C11.5529 2.08022 10.6463 2.32855 9.85473 2.80321L7.09173 0L4.1672 0.00260329L4.16871 1.6687L6.39489 1.66673L8.58353 3.88738C7.81616 4.79579 7.39566 5.94671 7.39669 7.13575V8.74927L5.14515 8.74963L1.66646 7.51078V5.00268H0V8.6859L4.16798 10.1702L4.16834 14.581H0.00177064V16.2471H4.16845V16.6641C4.16746 17.6406 4.33845 18.6095 4.67359 19.5266L0.00177064 21.3267V24.9941H1.66823V22.4702L5.40371 21.031C6.06265 22.1048 6.95689 23.015 8.01897 23.6928C9.08105 24.3707 10.2832 24.7986 11.5349 24.9442C12.7865 25.0899 14.0548 24.9494 15.2442 24.5335C16.4336 24.1175 17.513 23.437 18.401 22.5432C18.8583 22.0852 19.2612 21.576 19.6018 21.0257L23.3324 22.4693V24.9941H24.9989V21.3276L20.3319 19.5217C20.6668 18.6025 20.8363 17.6312 20.8325 16.6529V16.2471H24.9987V14.581H20.8325V10.1762L25 8.68163ZM11.6652 23.2833C8.38392 22.8775 5.83496 20.0642 5.83496 16.6643L5.83444 10.4158H7.39675V10.4162H11.6652V23.2833ZM9.06316 8.74901V7.1356C9.06316 6.23803 9.41979 5.37723 10.0546 4.74256C10.6894 4.10789 11.5504 3.75133 12.4482 3.75133C13.3459 3.75133 14.2069 4.10789 14.8417 4.74256C15.4765 5.37723 15.8332 6.23803 15.8332 7.1356V8.74796L9.06316 8.74901ZM19.1661 16.6551C19.1662 18.2801 18.5737 19.8493 17.4997 21.0689C16.4258 22.2886 14.9439 23.0749 13.3317 23.2807V10.4157H17.4995V10.4139H19.166L19.1661 16.6551Z" fill="black"/>
</svg>
