<svg width="20" height="20" viewBox="0 0 20 20" fill="none" xmlns="http://www.w3.org/2000/svg">
<path d="M10 4.44444V2.22222C10 1 9.1 0 8 0H2C0.9 0 0 1 0 2.22222V17.7778C0 19 0.9 20 2 20H18C19.1 20 20 19 20 17.7778V6.66667C20 5.44444 19.1 4.44444 18 4.44444H10ZM8 17.7778H2V15.5556H8V17.7778ZM8 13.3333H2V11.1111H8V13.3333ZM8 8.88889H2V6.66667H8V8.88889ZM8 4.44444H2V2.22222H8V4.44444ZM18 17.7778H10V6.66667H18V17.7778ZM16 8.88889H12V11.1111H16V8.88889ZM16 13.3333H12V15.5556H16V13.3333Z" fill="white"/>
</svg>
