<svg width="20" height="20" viewBox="0 0 20 20" fill="none" xmlns="http://www.w3.org/2000/svg">
<path d="M0 0V18.5714H12.3077V17.1429H1.53846V1.42857H9.23077V5.71429H13.8462V7.14286H15.3846V4.71429L15.1538 4.5L10.5385 0.214286L10.3077 0H0V0ZM10.7692 2.42857L12.7692 4.28571H10.7692V2.42857ZM3.07692 7.14286V8.57143H12.3077V7.14286H3.07692ZM16.1538 8.57143V10C14.8462 10.2143 13.8462 11.2143 13.8462 12.5C13.8462 13.9286 15 15 16.5385 15H17.3077C17.9231 15 18.4615 15.5 18.4615 16.0714C18.4615 16.6429 17.9231 17.1429 17.3077 17.1429H14.6154V18.5714H16.1538V20H17.6923V18.5714C19 18.3571 20 17.3571 20 16.0714C20 14.6429 18.8462 13.5714 17.3077 13.5714H16.5385C15.9231 13.5714 15.3846 13.0714 15.3846 12.5C15.3846 11.9286 15.9231 11.4286 16.5385 11.4286H19.2308V10H17.6923V8.57143H16.1538ZM3.07692 10.7143V12.1429H8.46154V10.7143H3.07692ZM10 10.7143V12.1429H12.3077V10.7143H10ZM3.07692 13.5714V15H8.46154V13.5714H3.07692ZM10 13.5714V15H12.3077V13.5714H10Z" fill="white"/>
</svg>
