<svg width="20" height="22" viewBox="0 0 20 22" fill="none" xmlns="http://www.w3.org/2000/svg">
<path d="M17 9H3C1.89543 9 1 9.89543 1 11V19C1 20.1046 1.89543 21 3 21H17C18.1046 21 19 20.1046 19 19V11C19 9.89543 18.1046 9 17 9Z" stroke="white" stroke-width="2" stroke-linecap="round" stroke-linejoin="round"/>
<path d="M4 9V4C4 3.20435 4.31607 2.44129 4.87868 1.87868C5.44129 1.31607 6.20435 1 7 1H13C13.7956 1 14.5587 1.31607 15.1213 1.87868C15.6839 2.44129 16 3.20435 16 4V5" stroke="white" stroke-width="2" stroke-linecap="round" stroke-linejoin="round"/>
</svg>
