<svg width="20" height="20" viewBox="0 0 20 20" fill="none" xmlns="http://www.w3.org/2000/svg">
<g clip-path="url(#clip0_110_102)">
<path d="M12.5714 14.7843H22V16.4272H12.5714V14.7843ZM12.5714 18.0701H22V19.713H12.5714V18.0701ZM12.5714 21.3559H22V22.9988H12.5714V21.3559ZM9.42857 13.1414C9.19547 13.1414 8.96761 13.2137 8.77379 13.3491C8.57998 13.4844 8.42892 13.6769 8.33971 13.902C8.25051 14.1272 8.22717 14.3749 8.27265 14.6139C8.31812 14.853 8.43037 15.0725 8.5952 15.2448C8.76002 15.4172 8.97002 15.5345 9.19864 15.5821C9.42726 15.6296 9.66424 15.6052 9.87959 15.5119C10.0949 15.4187 10.279 15.2608 10.4085 15.0581C10.538 14.8555 10.6071 14.6173 10.6071 14.3736C10.6071 14.0468 10.483 13.7334 10.2619 13.5023C10.0409 13.2712 9.74115 13.1414 9.42857 13.1414V13.1414ZM8.64286 4.10547H10.2143V11.4985H8.64286V4.10547Z" fill="white"/>
<path d="M9.42858 1.6429C11.5117 1.64529 13.5089 2.51151 14.9819 4.05151C16.4549 5.5915 17.2834 7.6795 17.2857 9.85738H18.8571C18.8571 7.90777 18.3042 6.00195 17.2681 4.38091C16.2321 2.75988 14.7596 1.49643 13.0367 0.750352C11.3139 0.00427106 9.41812 -0.190938 7.58915 0.189411C5.76019 0.56976 4.08018 1.50858 2.76157 2.88716C1.44296 4.26574 0.544975 6.02216 0.181172 7.9343C-0.182632 9.84644 0.00408527 11.8284 0.717711 13.6296C1.43134 15.4308 2.63982 16.9703 4.19034 18.0535C5.74086 19.1366 7.56378 19.7147 9.42858 19.7147V18.0719C7.34473 18.0719 5.34624 17.2064 3.87274 15.6659C2.39924 14.1254 1.57143 12.036 1.57143 9.85738C1.57143 7.67876 2.39924 5.58938 3.87274 4.04886C5.34624 2.50835 7.34473 1.6429 9.42858 1.6429V1.6429Z" fill="white"/>
</g>
<defs>
<clipPath id="clip0_110_102">
<rect width="20" height="20" fill="white"/>
</clipPath>
</defs>
</svg>
