<svg width="20" height="20" viewBox="0 0 20 20" fill="none" xmlns="http://www.w3.org/2000/svg">
<path d="M18.5709 0H9.1923L4.28516 4.9V7.85714H5.71373V6.86429H11.1494V1.42857H18.5709V18.5714H4.28516C4.28516 18.9503 4.43567 19.3137 4.70358 19.5816C4.97148 19.8495 5.33485 20 5.71373 20H18.5709C18.9498 20 19.3131 19.8495 19.581 19.5816C19.8489 19.3137 19.9994 18.9503 19.9994 18.5714V1.42857C19.9994 1.04969 19.8489 0.686328 19.581 0.418419C19.3131 0.15051 18.9498 0 18.5709 0V0ZM9.99944 5.71429H5.71373V5.48571L9.78516 1.42857H9.99944V5.71429Z" fill="white"/>
<path d="M7.1 15.9149C7.02523 15.979 6.9645 16.0578 6.92162 16.1464C6.87875 16.235 6.85466 16.3315 6.85086 16.4299C6.84706 16.5283 6.86363 16.6264 6.89954 16.718C6.93545 16.8097 6.98992 16.8929 7.05953 16.9626C7.12915 17.0322 7.21239 17.0866 7.30405 17.1225C7.39572 17.1585 7.49381 17.175 7.59218 17.1712C7.69055 17.1674 7.78708 17.1433 7.87569 17.1005C7.96431 17.0576 8.04311 16.9969 8.10714 16.9221L12.1429 12.8578L8.08571 8.80066C7.94907 8.68364 7.7733 8.6225 7.59353 8.62944C7.41376 8.63638 7.24324 8.71091 7.11603 8.83812C6.98882 8.96533 6.91429 9.13586 6.90735 9.31562C6.90041 9.49539 6.96155 9.67116 7.07857 9.8078L9.42857 12.1435H0.714286C0.524845 12.1435 0.343164 12.2188 0.209209 12.3527C0.0752549 12.4867 0 12.6684 0 12.8578C0 13.0472 0.0752549 13.2289 0.209209 13.3629C0.343164 13.4968 0.524845 13.5721 0.714286 13.5721H9.45L7.1 15.9149Z" fill="white"/>
</svg>
