<svg width="20" height="20" viewBox="0 0 20 20" fill="none" xmlns="http://www.w3.org/2000/svg">
<path d="M6 16.25H8V15H9C9.55 15 10 14.4375 10 13.75V10C10 9.3125 9.55 8.75 9 8.75H6V7.5H10V5H8V3.75H6V5H5C4.45 5 4 5.5625 4 6.25V10C4 10.6875 4.45 11.25 5 11.25H8V12.5H4V15H6V16.25ZM18 0H2C0.89 0 0.00999999 1.1125 0.00999999 2.5L0 17.5C0 18.8875 0.89 20 2 20H18C19.11 20 20 18.8875 20 17.5V2.5C20 1.1125 19.11 0 18 0ZM18 17.5H2V2.5H18V17.5ZM12 7.5L14 5L16 7.5M16 12.8125L14 15.3125L12 12.8125" fill="white"/>
</svg>
