<svg width="20" height="20" viewBox="0 0 20 20" fill="none" xmlns="http://www.w3.org/2000/svg">
<path d="M4.54545 20C3.78788 20 3.14394 19.6354 2.61364 18.9062C2.08333 18.1771 1.81818 17.2917 1.81818 16.25C1.31818 16.25 0.890303 16.0054 0.534546 15.5163C0.178182 15.0263 0 14.4375 0 13.75V2.5C0 1.8125 0.178182 1.22417 0.534546 0.735C0.890303 0.245 1.31818 0 1.81818 0H12.7273C13.2273 0 13.6555 0.245 14.0118 0.735C14.3676 1.22417 14.5455 1.8125 14.5455 2.5V5H16.8182C16.9697 5 17.1061 5.04167 17.2273 5.125C17.3485 5.20833 17.4545 5.33333 17.5455 5.5L19.8182 9.65625C19.8788 9.76042 19.9242 9.875 19.9545 10C19.9848 10.125 20 10.2604 20 10.4062V15C20 15.3542 19.9127 15.6508 19.7382 15.89C19.5642 16.13 19.3485 16.25 19.0909 16.25H18.1818C18.1818 17.2917 17.9167 18.1771 17.3864 18.9062C16.8561 19.6354 16.2121 20 15.4545 20C14.697 20 14.053 19.6354 13.5227 18.9062C12.9924 18.1771 12.7273 17.2917 12.7273 16.25H7.27273C7.27273 17.2917 7.00758 18.1771 6.47727 18.9062C5.94697 19.6354 5.30303 20 4.54545 20ZM4.54545 17.5C4.80303 17.5 5.01909 17.38 5.19364 17.14C5.36758 16.9008 5.45455 16.6042 5.45455 16.25C5.45455 15.8958 5.36758 15.5992 5.19364 15.36C5.01909 15.12 4.80303 15 4.54545 15C4.28788 15 4.07182 15.12 3.89727 15.36C3.72333 15.5992 3.63636 15.8958 3.63636 16.25C3.63636 16.6042 3.72333 16.9008 3.89727 17.14C4.07182 17.38 4.28788 17.5 4.54545 17.5ZM1.81818 2.5V13.75H2.54545C2.80303 13.375 3.09849 13.0729 3.43182 12.8437C3.76515 12.6146 4.13636 12.5 4.54545 12.5C4.95455 12.5 5.32576 12.6146 5.65909 12.8437C5.99242 13.0729 6.28788 13.375 6.54545 13.75H12.7273V2.5H1.81818ZM15.4545 17.5C15.7121 17.5 15.9279 17.38 16.1018 17.14C16.2764 16.9008 16.3636 16.6042 16.3636 16.25C16.3636 15.8958 16.2764 15.5992 16.1018 15.36C15.9279 15.12 15.7121 15 15.4545 15C15.197 15 14.9812 15.12 14.8073 15.36C14.6327 15.5992 14.5455 15.8958 14.5455 16.25C14.5455 16.6042 14.6327 16.9008 14.8073 17.14C14.9812 17.38 15.197 17.5 15.4545 17.5ZM14.5455 11.25H18.4091L16.3636 7.5H14.5455V11.25Z" fill="white"/>
</svg>
