<svg width="20" height="20" viewBox="0 0 20 20" fill="none" xmlns="http://www.w3.org/2000/svg">
<g clip-path="url(#clip0_110_82)">
<path d="M12.0589 0.968271C12.1601 0.862053 12.2161 0.719793 12.2148 0.572128C12.2136 0.424464 12.1551 0.283211 12.0521 0.178793C11.9491 0.0743746 11.8098 0.0151453 11.6641 0.0138621C11.5185 0.0125789 11.3781 0.0693447 11.2734 0.171933L9.9995 1.46331L8.72564 0.171933C8.6744 0.118143 8.6131 0.0752387 8.54532 0.0457229C8.47754 0.0162071 8.40464 0.000671072 8.33088 2.12641e-05C8.25711 -0.000628544 8.18396 0.0136208 8.11569 0.041938C8.04741 0.0702553 7.98538 0.112073 7.93322 0.164952C7.88106 0.21783 7.83981 0.280711 7.81188 0.349924C7.78394 0.419137 7.76989 0.493296 7.77053 0.568075C7.77117 0.642854 7.7865 0.716754 7.81561 0.785465C7.84473 0.854175 7.88705 0.916319 7.94011 0.968271L9.21397 2.25965L7.94011 3.55102C7.83891 3.65724 7.78292 3.7995 7.78418 3.94716C7.78545 4.09483 7.84387 4.23608 7.94688 4.3405C8.04988 4.44492 8.18921 4.50414 8.33488 4.50543C8.48054 4.50671 8.62087 4.44995 8.72564 4.34736L9.9995 3.05598L11.2734 4.34736C11.3776 4.45296 11.519 4.51225 11.6663 4.5122C11.8137 4.51215 11.955 4.45275 12.0592 4.34708C12.1633 4.2414 12.2218 4.0981 12.2218 3.94871C12.2217 3.79931 12.1631 3.65606 12.0589 3.55046L10.785 2.25965L12.0589 0.968271ZM15.5266 14.7533C15.5497 14.8234 15.5589 14.8975 15.5537 14.9713C15.5485 15.0451 15.529 15.1172 15.4963 15.1833C15.4637 15.2495 15.4185 15.3085 15.3633 15.3569C15.3082 15.4054 15.2442 15.4423 15.1749 15.4657L12.675 16.3105C12.5352 16.3577 12.3826 16.3466 12.2508 16.2798C12.119 16.2129 12.0188 16.0957 11.9722 15.954C11.9257 15.8122 11.9366 15.6575 12.0025 15.5239C12.0685 15.3903 12.1841 15.2887 12.3239 15.2415L14.8238 14.3968C14.8931 14.3734 14.9662 14.364 15.039 14.3693C15.1117 14.3746 15.1828 14.3943 15.2481 14.4274C15.3133 14.4605 15.3715 14.5063 15.4193 14.5622C15.4671 14.6182 15.5035 14.6831 15.5266 14.7533Z" fill="white"/>
<path fill-rule="evenodd" clip-rule="evenodd" d="M0.38024 11.524L2.22242 12.1463V16.903C2.22242 17.0201 2.25843 17.1343 2.32544 17.2296C2.39245 17.325 2.48713 17.3969 2.5963 17.4352L9.81389 19.9678C9.92796 20.0093 10.0524 20.0115 10.1678 19.974L10.1756 19.9717L10.1839 19.9689L17.4037 17.4352C17.5129 17.3969 17.6075 17.325 17.6746 17.2296C17.7416 17.1343 17.7776 17.0201 17.7776 16.903V12.1463L19.6198 11.524C19.7047 11.4954 19.7816 11.4463 19.8439 11.3811C19.9061 11.3158 19.9519 11.2362 19.9772 11.1492C20.0026 11.0621 20.0068 10.9701 19.9896 10.881C19.9723 10.792 19.9341 10.7084 19.8781 10.6376L17.6559 7.82167C17.59 7.73848 17.5022 7.67598 17.4026 7.64145L10.1817 5.10713C10.064 5.06585 9.93602 5.06585 9.81834 5.10713L2.59741 7.64145C2.49782 7.67596 2.40996 7.73846 2.34408 7.82167L0.121913 10.6376C0.0659351 10.7084 0.027685 10.792 0.0104211 10.881C-0.00684272 10.9701 -0.00260842 11.0621 0.0227632 11.1492C0.0481349 11.2362 0.0938917 11.3158 0.156135 11.3811C0.218379 11.4463 0.295264 11.4954 0.38024 11.524V11.524ZM8.51059 13.8466L9.44446 12.4949V18.6466L3.3335 16.502V12.5214L7.88005 14.0578C7.99363 14.096 8.11636 14.0961 8.22998 14.0579C8.34359 14.0198 8.44202 13.9455 8.51059 13.846V13.8466ZM4.47625 8.17365L10 10.1121L15.5238 8.17365L10 6.23519L4.47625 8.17365ZM11.4894 13.8466L10.5555 12.4955V18.6471L16.6665 16.5025V12.5214L12.1199 14.0578C12.0064 14.096 11.8836 14.0961 11.77 14.0579C11.6564 14.0198 11.558 13.9455 11.4894 13.846V13.8466ZM2.96684 8.83596L1.48743 10.7108L4.54902 11.7453L7.83783 12.8565L9.1228 10.9963L9.0478 10.9698L2.96684 8.83539V8.83596ZM18.5126 10.7108L17.0332 8.83539L10.8772 10.9963L12.1622 12.8565L18.5126 10.7108Z" fill="white"/>
</g>
<defs>
<clipPath id="clip0_110_82">
<rect width="20" height="20" fill="white"/>
</clipPath>
</defs>
</svg>
