<svg width="12" height="10" viewBox="0 0 12 10" fill="none" xmlns="http://www.w3.org/2000/svg">
<path d="M6.77851 0.455796L11.7419 7.78371C12.3277 8.6459 11.8516 10 10.9627 10L1.0358 10C0.836841 10.0002 0.642053 9.92636 0.474759 9.78727C0.307466 9.64818 0.174758 9.44975 0.0925286 9.21575C0.010299 8.98175 -0.0179672 8.72209 0.0111157 8.46788C0.0401986 8.21366 0.125398 7.97566 0.256509 7.78237L5.21994 0.457133C5.31708 0.313556 5.43687 0.198482 5.57128 0.119637C5.70569 0.0407925 5.85161 2.36807e-07 5.99923 2.49712e-07C6.14685 2.62618e-07 6.29276 0.0407926 6.42717 0.119638C6.56158 0.198483 6.68138 0.313556 6.77851 0.457133L6.77851 0.455796Z" fill="white"/>
</svg>
