<svg width="25" height="25" viewBox="0 0 25 25" fill="none" xmlns="http://www.w3.org/2000/svg">
<path d="M12.4994 5.35742C11.6165 5.35742 10.7534 5.61925 10.0192 6.10979C9.28507 6.60033 8.71287 7.29756 8.37498 8.1133C8.03709 8.92904 7.94868 9.82666 8.12094 10.6926C8.29319 11.5586 8.71838 12.3541 9.34272 12.9784C9.96706 13.6028 10.7625 14.028 11.6285 14.2002C12.4945 14.3725 13.3921 14.2841 14.2079 13.9462C15.0236 13.6083 15.7208 13.0361 16.2114 12.3019C16.7019 11.5678 16.9637 10.7047 16.9637 9.82171C16.9637 8.6377 16.4934 7.5022 15.6562 6.66498C14.819 5.82776 13.6834 5.35742 12.4994 5.35742ZM12.4994 12.5003C11.9697 12.5003 11.4518 12.3432 11.0113 12.0489C10.5708 11.7545 10.2275 11.3362 10.0248 10.8468C9.82203 10.3573 9.76899 9.81874 9.87234 9.29914C9.97569 8.77955 10.2308 8.30228 10.6054 7.92767C10.98 7.55307 11.4573 7.29796 11.9769 7.1946C12.4965 7.09125 13.035 7.1443 13.5245 7.34703C14.0139 7.54976 14.4323 7.89308 14.7266 8.33357C15.0209 8.77406 15.178 9.29194 15.178 9.82171C15.1773 10.5319 14.8949 11.2128 14.3927 11.715C13.8905 12.2171 13.2096 12.4996 12.4994 12.5003Z" fill="black"/>
<path d="M12.5 0C10.0277 0 7.61099 0.733112 5.55538 2.10663C3.49976 3.48015 1.89761 5.43238 0.951511 7.71646C0.00541604 10.0005 -0.242126 12.5139 0.24019 14.9386C0.722505 17.3634 1.91301 19.5907 3.66117 21.3388C5.40933 23.087 7.63661 24.2775 10.0614 24.7598C12.4861 25.2421 14.9995 24.9946 17.2835 24.0485C19.5676 23.1024 21.5199 21.5002 22.8934 19.4446C24.2669 17.389 25 14.9723 25 12.5C24.9962 9.18595 23.678 6.00873 21.3347 3.66534C18.9913 1.32196 15.814 0.003781 12.5 0ZM7.14286 21.7652V20.5357C7.14357 19.8255 7.426 19.1446 7.92818 18.6425C8.43036 18.1403 9.11125 17.8578 9.82143 17.8571H15.1786C15.8888 17.8578 16.5697 18.1403 17.0718 18.6425C17.574 19.1446 17.8564 19.8255 17.8571 20.5357V21.7652C16.2314 22.7145 14.3826 23.2147 12.5 23.2147C10.6174 23.2147 8.76861 22.7145 7.14286 21.7652ZM19.6357 20.4696C19.6179 19.2985 19.1408 18.1812 18.3071 17.3586C17.4734 16.5359 16.3498 16.0736 15.1786 16.0714H9.82143C8.65017 16.0736 7.52664 16.5359 6.69294 17.3586C5.85924 18.1812 5.38208 19.2985 5.36429 20.4696C3.74515 19.0239 2.60334 17.1204 2.09004 15.0113C1.57674 12.9022 1.71617 10.6869 2.48986 8.6588C3.26356 6.63069 4.63502 4.88542 6.42266 3.65408C8.21029 2.42274 10.3298 1.76342 12.5004 1.76342C14.6711 1.76342 16.7906 2.42274 18.5782 3.65408C20.3659 4.88542 21.7373 6.63069 22.511 8.6588C23.2847 10.6869 23.4242 12.9022 22.9109 15.0113C22.3976 17.1204 21.2557 19.0239 19.6366 20.4696H19.6357Z" fill="black"/>
</svg>
