<svg width="20" height="20" viewBox="0 0 20 20" fill="none" xmlns="http://www.w3.org/2000/svg">
<path d="M19.0624 6.75497C18.9464 6.75548 18.8317 6.72717 18.7273 6.67219L9.92299 1.78808L1.11869 6.63907C0.930837 6.73567 0.71537 6.74721 0.519692 6.67114C0.324013 6.59507 0.164151 6.43763 0.0752742 6.23344C-0.013603 6.02926 -0.0242151 5.79507 0.0457721 5.58238C0.115759 5.3697 0.260613 5.19594 0.448467 5.09934L9.92299 0L19.3975 5.09934C19.5972 5.15005 19.7705 5.28423 19.8799 5.47281C19.9892 5.6614 20.0258 5.88922 19.9818 6.10693C19.9377 6.32464 19.8165 6.51472 19.6444 6.63601C19.4724 6.7573 19.2633 6.80004 19.0624 6.75497V6.75497ZM6.1149 15.0331H1.5452V20H6.1149V15.0331ZM12.2078 15.0331H7.63814V20H12.2078V15.0331ZM18.3008 15.0331H13.7311V20H18.3008V15.0331ZM15.2543 8.4106H10.6846V13.3775H15.2543V8.4106ZM9.16138 8.4106H4.59167V13.3775H9.16138V8.4106Z" fill="white"/>
</svg>
