<svg width="20" height="20" viewBox="0 0 20 20" fill="none" xmlns="http://www.w3.org/2000/svg">
<path d="M2.91211 14.5C3.63008 15.8686 4.6631 17.0051 5.90723 17.7951C7.15135 18.5851 8.56268 19.0006 9.9992 19C11.4357 19.0006 12.847 18.5851 14.0912 17.7951C15.3353 17.0051 16.3683 15.8686 17.0863 14.5M2.91211 5.5C3.63008 4.13135 4.6631 2.99486 5.90723 2.2049C7.15135 1.41493 8.56268 0.99936 9.9992 1C11.4357 0.99936 12.847 1.41493 14.0912 2.2049C15.3353 2.99486 16.3683 4.13135 17.0863 5.5" stroke="white" stroke-width="1.5" stroke-linecap="round" stroke-linejoin="round"/>
<path d="M10.8182 18.9588C10.8182 18.9588 11.9702 17.2911 12.6959 14.5038M10.8182 1.04883C10.8182 1.04883 11.9702 2.71563 12.6959 5.50383M9.18182 18.9588C9.18182 18.9588 8.02982 17.292 7.30409 14.5038M9.18182 1.04883C9.18182 1.04883 8.02982 2.71563 7.30409 5.50383M7.54545 8.20383L8.77273 12.7038L10 8.20383L11.2273 12.7038L12.4545 8.20383M1 8.20383L2.22727 12.7038L3.45455 8.20383L4.68182 12.7038L5.90909 8.20383M14.0909 8.20383L15.3182 12.7038L16.5455 8.20383L17.7727 12.7038L19 8.20383" stroke="white" stroke-width="1.5" stroke-linecap="round" stroke-linejoin="round"/>
</svg>
